<svg width="512" height="512" viewBox="0 0 512 512" fill="none" xmlns="http://www.w3.org/2000/svg">
<rect width="512" height="512" rx="20" fill="#6A5AE0"/>
<path d="M332.878 256.5H310.914V244.84C310.914 238.4 305.694 233.18 299.254 233.18C292.814 233.18 287.594 238.4 287.594 244.84V256.5H225.406V268.16C225.406 274.6 220.186 279.82 213.746 279.82C207.306 279.82 202.086 274.6 202.086 268.16V256.5H180.122M256.5 173.405V202.086H244.84C238.4 202.086 233.18 207.306 233.18 213.746C233.18 220.186 238.4 225.406 244.84 225.406H256.5V287.594H268.16C274.6 287.594 279.82 292.814 279.82 299.254C279.82 305.694 274.6 310.914 268.16 310.914H256.5V339.595M256.5 173.405C250.802 166.934 242.479 162.83 233.18 162.83C216.007 162.83 202.086 176.751 202.086 193.924C182.767 193.924 167.105 209.585 167.105 228.904C167.105 240.133 172.417 250.099 180.642 256.5C172.417 262.901 167.105 272.867 167.105 284.096C167.105 303.415 182.767 319.076 202.086 319.076C202.086 336.249 216.007 350.17 233.18 350.17C242.479 350.17 250.802 346.066 256.5 339.595M256.5 173.405C262.198 166.934 270.521 162.83 279.82 162.83C296.993 162.83 310.914 176.751 310.914 193.924C330.233 193.924 345.895 209.585 345.895 228.904C345.895 240.133 340.583 250.099 332.358 256.5C340.583 262.901 345.895 272.867 345.895 284.096C345.895 303.415 330.233 319.076 310.914 319.076C310.914 336.249 296.993 350.17 279.82 350.17C270.521 350.17 262.198 346.066 256.5 339.595" stroke="white" stroke-width="6" stroke-miterlimit="10" stroke-linecap="round" stroke-linejoin="round"/>
</svg>
